<svg xmlns="http://www.w3.org/2000/svg" width="100" height="100" fill="#a04ef6" version="1.0"><path d="M54.134 51.361c-.931-2.393-1.92-4.766-3.014-7.09-12.826 4.59-26.735 6.721-41.12 5.921.052 10.873 4.44 20.712 11.523 27.891 7.351-12.976 19.134-22.259 32.611-26.722zM54.323 35.918c8.447-3.607 16.409-8.46 23.714-14.427C70.817 14.391 60.918 10 49.993 10c-4.439 0-8.697.755-12.688 2.09 6.758 7.373 12.473 15.365 17.018 23.828zM57.317 41.852c1.186 2.546 2.246 5.134 3.242 7.741a58.428 58.428 0 0 1 29.389 1.418c.013-.337.052-.669.052-1.011 0-8.763-2.852-16.846-7.634-23.438-7.571 6.205-15.982 11.381-25.049 15.29zM62.776 55.941c3.066 9.67 4.805 19.654 5.319 29.696 10.769-5.479 18.728-15.661 21.136-27.86-8.596-2.92-17.659-3.535-26.455-1.836zM48.06 38.311c-4.629-8.441-10.426-16.29-17.24-23.418a40 40 0 0 0-20.264 28.662c12.908.693 25.596-1.107 37.504-5.244zM56.36 57.643c-1.25.41-2.5.828-3.727 1.336-11.24 4.654-20.303 12.893-25.947 23.485C33.255 87.188 41.286 90 49.993 90a39.92 39.92 0 0 0 11.54-1.706c-.322-10.543-2.034-20.843-5.173-30.651z"/></svg>