<svg width="16" height="17" viewBox="0 0 16 17" fill="none" xmlns="http://www.w3.org/2000/svg">
<path fill-rule="evenodd" clip-rule="evenodd" d="M1.25 0.083374C0.835786 0.083374 0.5 0.419161 0.5 0.833374V12.6615C0.5 13.0757 0.835786 13.4115 1.25 13.4115H4.67961V15.9362C4.67961 16.4559 5.30794 16.7161 5.67542 16.3487L8.61255 13.4115H12.4815C12.6804 13.4115 12.8712 13.3325 13.0118 13.1919L15.2803 10.9234C15.421 10.7827 15.5 10.5919 15.5 10.393V0.833374C15.5 0.41916 15.1642 0.083374 14.75 0.083374H1.25ZM7.34911 4.41672C7.34911 4.07154 7.06929 3.79172 6.72411 3.79172C6.37893 3.79172 6.09911 4.07154 6.09911 4.41672V7.97676C6.09911 8.32194 6.37893 8.60176 6.72411 8.60176C7.06929 8.60176 7.34911 8.32194 7.34911 7.97676V4.41672ZM11.5287 4.41672C11.5287 4.07154 11.2489 3.79172 10.9037 3.79172C10.5585 3.79172 10.2787 4.07154 10.2787 4.41672V7.97676C10.2787 8.32194 10.5585 8.60176 10.9037 8.60176C11.2489 8.60176 11.5287 8.32194 11.5287 7.97676V4.41672Z" fill="#4E5FF6"/>
</svg>
