<svg width="22" height="22" viewBox="0 0 22 22" xmlns="http://www.w3.org/2000/svg">
<path d="M18.75 0C20.5449 0 22 1.45507 22 3.25V18.75C22 20.5449 20.5449 22 18.75 22H3.25C1.45507 22 0 20.5449 0 18.75V3.25C0 1.45507 1.45507 0 3.25 0H18.75ZM20.5 6.503H1.5V18.75C1.5 19.7165 2.2835 20.5 3.25 20.5H18.75C19.7165 20.5 20.5 19.7165 20.5 18.75V6.503ZM5.74878 14.5014C6.43913 14.5014 6.99878 15.0611 6.99878 15.7514C6.99878 16.4418 6.43913 17.0014 5.74878 17.0014C5.05842 17.0014 4.49878 16.4418 4.49878 15.7514C4.49878 15.0611 5.05842 14.5014 5.74878 14.5014ZM11.0033 14.5014C11.6936 14.5014 12.2533 15.0611 12.2533 15.7514C12.2533 16.4418 11.6936 17.0014 11.0033 17.0014C10.3129 17.0014 9.75326 16.4418 9.75326 15.7514C9.75326 15.0611 10.3129 14.5014 11.0033 14.5014ZM5.74878 9.50141C6.43913 9.50141 6.99878 10.0611 6.99878 10.7514C6.99878 11.4418 6.43913 12.0014 5.74878 12.0014C5.05842 12.0014 4.49878 11.4418 4.49878 10.7514C4.49878 10.0611 5.05842 9.50141 5.74878 9.50141ZM11.0033 9.50141C11.6936 9.50141 12.2533 10.0611 12.2533 10.7514C12.2533 11.4418 11.6936 12.0014 11.0033 12.0014C10.3129 12.0014 9.75326 11.4418 9.75326 10.7514C9.75326 10.0611 10.3129 9.50141 11.0033 9.50141ZM16.2577 9.50141C16.9481 9.50141 17.5077 10.0611 17.5077 10.7514C17.5077 11.4418 16.9481 12.0014 16.2577 12.0014C15.5674 12.0014 15.0077 11.4418 15.0077 10.7514C15.0077 10.0611 15.5674 9.50141 16.2577 9.50141ZM18.75 1.5H3.25C2.2835 1.5 1.5 2.2835 1.5 3.25V5.003H20.5V3.25C20.5 2.2835 19.7165 1.5 18.75 1.5Z" />
</svg>
