<svg width="26" height="17" viewBox="0 0 26 17" xmlns="http://www.w3.org/2000/svg">
<path fill-rule="evenodd" clip-rule="evenodd" d="M21.7548 15.6761C21.2816 16.1317 20.6542 16.4248 19.9628 16.4742L18.0519 16.6109C14.0224 16.8992 9.97751 16.8992 5.94802 16.6109L4.18168 16.4846C2.78631 16.3847 1.63539 15.3532 1.38395 13.977C0.874507 11.1888 0.787291 8.33984 1.12523 5.52568L1.44313 2.87838C1.63179 1.30733 2.96459 0.125 4.54692 0.125H7.22042C8.52446 0.125 9.61094 1.05653 9.85071 2.29047H19.5509C21.075 2.29047 22.3731 3.39789 22.6134 4.90291L22.6881 5.37125C22.7038 5.46966 22.719 5.56813 22.7335 5.66667H23.1255C24.8433 5.66667 26.0244 7.39313 25.4017 8.99414L23.9441 12.7425C23.4914 13.9064 22.732 14.9185 21.7548 15.6761ZM20.8852 5.17875L20.96 5.64709C20.961 5.65361 20.9621 5.66014 20.9631 5.66667H10.0988C8.77382 5.66667 7.58513 6.48117 7.10681 7.71681L4.38633 14.7447L4.30656 14.739C3.70751 14.6962 3.2134 14.2533 3.10545 13.6625C2.62754 11.0469 2.54573 8.37428 2.86274 5.73433L3.18064 3.08703C3.26369 2.39546 3.85039 1.875 4.54692 1.875H7.22042C7.7338 1.875 8.14998 2.29118 8.14998 2.80456C8.14998 3.48714 8.70331 4.04047 9.38589 4.04047H19.5509C20.2149 4.04047 20.7806 4.52299 20.8852 5.17875ZM6.21235 14.8752C10.1126 15.1477 14.0272 15.1444 17.927 14.8654L19.8379 14.7287L20.0649 14.7074L20.0633 14.7046C21.0906 14.125 21.8855 13.2075 22.3131 12.1082L23.7707 8.35985C23.9472 7.90604 23.6125 7.41667 23.1255 7.41667H10.0988C9.49654 7.41667 8.95622 7.7869 8.73881 8.34855L6.21235 14.8752Z" />
</svg>
