<svg width="14" height="18" viewBox="0 0 14 18" fill="none" xmlns="http://www.w3.org/2000/svg">
<path d="M5.33332 0.875C4.98815 0.875 4.70832 1.15482 4.70832 1.5V2.125H1.16666C0.821479 2.125 0.541656 2.40482 0.541656 2.75C0.541656 3.09518 0.821479 3.375 1.16666 3.375H12.8333C13.1785 3.375 13.4583 3.09518 13.4583 2.75C13.4583 2.40482 13.1785 2.125 12.8333 2.125H9.29166V1.5C9.29166 1.15482 9.01183 0.875 8.66666 0.875H5.33332Z" fill="#F64E4E"/>
<path d="M5.33332 7.875C5.6785 7.875 5.95832 8.15482 5.95832 8.5L5.95832 14.3333C5.95832 14.6785 5.6785 14.9583 5.33332 14.9583C4.98814 14.9583 4.70832 14.6785 4.70832 14.3333L4.70832 8.5C4.70832 8.15482 4.98815 7.875 5.33332 7.875Z" fill="#F64E4E"/>
<path d="M9.29166 8.5C9.29166 8.15482 9.01183 7.875 8.66666 7.875C8.32148 7.875 8.04166 8.15482 8.04166 8.5V14.3333C8.04166 14.6785 8.32148 14.9583 8.66666 14.9583C9.01183 14.9583 9.29166 14.6785 9.29166 14.3333V8.5Z" fill="#F64E4E"/>
<path fill-rule="evenodd" clip-rule="evenodd" d="M1.99284 5.59765C2.02801 5.28113 2.29555 5.04167 2.61402 5.04167H11.386C11.7044 5.04167 11.972 5.28113 12.0071 5.59765L12.1739 7.09877C12.4763 9.81987 12.4763 12.5661 12.1739 15.2872L12.1575 15.435C12.0375 16.5151 11.2004 17.3764 10.1241 17.5271C8.05146 17.8172 5.94851 17.8172 3.87589 17.5271C2.79961 17.3764 1.96249 16.5151 1.84247 15.435L1.82605 15.2872C1.52371 12.5661 1.52371 9.81987 1.82605 7.09877L1.99284 5.59765ZM3.17342 6.29167L3.06841 7.23681C2.77626 9.86617 2.77626 12.5198 3.06841 15.1492L3.08483 15.2969C3.14175 15.8092 3.53876 16.2177 4.0492 16.2891C6.00684 16.5632 7.99313 16.5632 9.95077 16.2891C10.4612 16.2177 10.8582 15.8092 10.9151 15.2969L10.9316 15.1492C11.2237 12.5198 11.2237 9.86617 10.9316 7.23681L10.8265 6.29167H3.17342Z" fill="#F64E4E"/>
</svg>
