<svg width="20" height="23" viewBox="0 0 20 23" xmlns="http://www.w3.org/2000/svg">
<path fill-rule="evenodd" clip-rule="evenodd" d="M11.8176 3.2899C10.8019 2.31531 9.19832 2.31531 8.18265 3.2899L2.78514 8.46912C2.6529 8.59602 2.56394 8.76132 2.53088 8.94159C1.8844 12.4671 1.83668 16.0763 2.38973 19.6177L2.521 20.4583H5.99353V13.2117C5.99353 12.7285 6.38528 12.3367 6.86853 12.3367H13.1317C13.6149 12.3367 14.0067 12.7285 14.0067 13.2117V20.4583H17.4792L17.6105 19.6177C18.1635 16.0763 18.1158 12.4671 17.4693 8.94159C17.4363 8.76132 17.3473 8.59602 17.2151 8.46912L11.8176 3.2899ZM6.97101 2.02719C8.66378 0.402883 11.3364 0.402883 13.0292 2.02719L18.4267 7.20641C18.8241 7.58768 19.0913 8.08431 19.1906 8.62595C19.8726 12.3448 19.9229 16.1521 19.3395 19.8877L19.1287 21.2381C19.0414 21.7966 18.5604 22.2083 17.9952 22.2083H13.1317C12.6484 22.2083 12.2567 21.8165 12.2567 21.3333V14.0867H7.74353V21.3333C7.74353 21.8165 7.35178 22.2083 6.86853 22.2083H2.00502C1.43979 22.2083 0.958788 21.7966 0.871574 21.2381L0.660684 19.8877C0.0772945 16.1521 0.127633 12.3448 0.809585 8.62595C0.908907 8.08431 1.17617 7.58768 1.5735 7.20641L6.97101 2.02719Z" />
</svg>
