<svg width="20" height="25" viewBox="0 0 20 25" xmlns="http://www.w3.org/2000/svg">
<path fill-rule="evenodd" clip-rule="evenodd" d="M14.2584 2.97339L15.2073 3.09157C17.3976 3.36434 19.0416 5.22586 19.0416 7.43302V19.6707C19.0416 21.8137 17.4453 23.6212 15.3187 23.886C11.7865 24.3259 8.21342 24.3259 4.68123 23.886C2.55461 23.6212 0.958313 21.8137 0.958313 19.6707V7.43302C0.958313 5.22586 2.60237 3.36434 4.79262 3.09157L5.74153 2.97339C6.11741 1.61906 7.35927 0.625 8.83331 0.625H11.1666C12.6407 0.625 13.8826 1.61906 14.2584 2.97339ZM5.62498 4.75142L5.0089 4.82815C3.69475 4.99182 2.70831 6.10872 2.70831 7.43302V19.6707C2.70831 20.9309 3.64699 21.9937 4.89751 22.1494C8.28607 22.5715 11.7139 22.5715 15.1025 22.1494C16.353 21.9937 17.2916 20.9309 17.2916 19.6707V7.43302C17.2916 6.10873 16.3052 4.99182 14.9911 4.82815L14.375 4.75142V6.16667C14.375 6.64992 13.9832 7.04167 13.5 7.04167H6.49998C6.01673 7.04167 5.62498 6.64992 5.62498 6.16667V4.75142ZM7.37498 3.83333C7.37498 3.02792 8.0279 2.375 8.83331 2.375H11.1666C11.9721 2.375 12.625 3.02792 12.625 3.83333V5.29167H7.37498V3.83333Z" />
<path d="M14.375 11.7083C14.375 11.2251 13.9832 10.8333 13.5 10.8333H6.49998C6.01673 10.8333 5.62498 11.2251 5.62498 11.7083C5.62498 12.1916 6.01673 12.5833 6.49998 12.5833H13.5C13.9832 12.5833 14.375 12.1916 14.375 11.7083Z" />
<path d="M13.2083 15.2083C13.2083 14.7251 12.8166 14.3333 12.3333 14.3333H6.49998C6.01673 14.3333 5.62498 14.7251 5.62498 15.2083C5.62498 15.6916 6.01673 16.0833 6.49998 16.0833H12.3333C12.8166 16.0833 13.2083 15.6916 13.2083 15.2083Z" />
</svg>
